<?xml version="1.0" encoding="UTF-8"?>
<!DOCTYPE svg PUBLIC "-//W3C//DTD SVG 1.1//EN" "http://www.w3.org/Graphics/SVG/1.1/DTD/svg11.dtd">
<svg version="1.1" xmlns="http://www.w3.org/2000/svg" xmlns:xlink="http://www.w3.org/1999/xlink" x="0" y="0" width="90" height="90" viewBox="0, 0, 90, 90">
  <g id="Layer_1">
    <g>
      <path d="M89.399,45 C89.399,69.521 69.521,89.399 45,89.399 C20.477,89.399 0.599,69.521 0.599,45 C0.599,20.479 20.477,0.601 45,0.601 C69.521,0.601 89.399,20.479 89.399,45" fill="#FFFFFF"/>
      <path d="M45,77.701 C26.969,77.701 12.299,63.031 12.299,44.998 C12.299,26.967 26.969,12.299 45,12.299 C63.03,12.299 77.701,26.967 77.701,44.998 C77.701,63.031 63.03,77.701 45,77.701" fill="#EB003C"/>
      <path d="M44.999,45 L18.077,34.524 L28.216,45 L18.077,55.478 z M44.999,45 L71.925,55.478 L61.786,45 L71.925,34.524 z M44.999,45 L34.523,71.924 L44.999,61.785 L55.477,71.924 z M44.999,45 L55.477,18.076 L44.999,28.215 L34.523,18.076 z" fill="#FFFFFF"/>
      <path d="M7.393,44.25 L5.495,44.25 L5.495,45.75 L7.393,45.75 z M82.607,45.75 L84.505,45.75 L84.505,44.25 L82.607,44.25 z M81.241,66.099 L80.339,65.511 L78.66,68.08 L77.252,67.162 L78.716,64.92 L77.81,64.329 L76.347,66.557 L74.953,65.644 L76.629,63.08 L75.728,62.49 L73.309,66.187 L78.821,69.794 z M74.775,74.527 L72.857,72.687 L74.665,70.798 L73.883,70.045 L72.073,71.933 L70.793,70.709 L72.876,68.538 L72.102,67.792 L69.09,70.936 L73.842,75.497 z M72.056,77.04 L71.397,76.164 L68.997,77.969 L65.697,73.576 L64.616,74.389 L68.572,79.659 z M65.455,81.567 L62.33,75.767 L61.139,76.408 L64.265,82.208 z M57.208,85.103 L56.33,82.532 L58.924,81.65 L59.799,84.22 L61.07,83.787 L58.944,77.553 L57.672,77.983 L58.56,80.584 L55.968,81.467 L55.083,78.866 L53.809,79.301 L55.937,85.535 z M51.918,83.366 L51.789,82.445 L48.808,82.865 L48.935,83.784 z M47.223,87.041 L47.234,85.944 L44.231,85.913 L44.292,80.42 L42.94,80.406 L42.867,86.993 z M40.389,86.759 L40.568,85.678 L37.606,85.187 L38.507,79.771 L37.172,79.548 L36.092,86.045 z M31.986,82.082 L32.054,79.246 L30.24,81.423 z M33.287,78.348 L33.223,85.369 L31.922,84.875 L31.96,83.17 L29.545,82.26 L28.455,83.57 L27.236,83.107 L31.929,77.836 z M23.007,80.701 L24.369,78.422 L26.616,79.765 L27.174,78.831 L24.926,77.488 L25.833,75.971 L28.418,77.512 L28.972,76.589 L25.231,74.354 L21.854,80.014 z M22.138,71.981 L19.147,75.185 L19.789,69.791 L18.908,68.969 L14.413,73.785 L15.332,74.64 L18.374,71.38 L17.757,76.905 L18.559,77.653 L23.055,72.834 z M10.185,68.787 C9.649,67.996 9.426,67.275 9.519,66.621 C9.611,65.963 10.032,65.382 10.784,64.869 L14.141,62.586 L14.924,63.738 L11.599,65.998 C11.132,66.319 10.851,66.652 10.761,66.997 C10.671,67.349 10.765,67.726 11.043,68.135 C11.307,68.519 11.622,68.742 11.987,68.801 C12.353,68.857 12.769,68.729 13.239,68.41 L16.562,66.151 L17.285,67.209 L13.928,69.494 C13.427,69.832 12.947,70.023 12.488,70.065 C12.031,70.106 11.608,70.014 11.224,69.793 C10.837,69.568 10.49,69.233 10.185,68.787 M78.426,26.676 L79.255,26.263 L80.599,28.959 L79.769,29.373 z M75.054,20.628 L75.929,21.777 C76.142,22.062 76.375,22.228 76.628,22.276 C76.879,22.326 77.15,22.237 77.448,22.015 C77.707,21.818 77.865,21.6 77.909,21.366 C77.953,21.135 77.877,20.882 77.671,20.608 L76.725,19.364 z M79.229,21.719 C79.192,22.241 78.907,22.704 78.366,23.115 C78.118,23.306 77.834,23.436 77.531,23.507 C77.225,23.577 76.921,23.572 76.621,23.493 C76.398,23.432 76.193,23.306 75.996,23.151 L74.936,26.124 L73.914,24.781 L74.953,22.209 L74.23,21.256 L72.335,22.693 L71.521,21.624 L76.769,17.642 L78.626,20.09 C79.058,20.658 79.258,21.2 79.229,21.719 M66.128,16.7 L70.384,11.67 L73.756,14.522 L73.056,15.345 L70.722,13.367 L69.644,14.641 L71.676,16.364 L70.975,17.192 L68.934,15.463 L67.851,16.743 L70.193,18.73 L69.496,19.553 z M61.323,13.748 L63.974,8.914 L62.232,7.959 L62.75,7.018 L67.429,9.579 L66.909,10.523 L65.15,9.559 L62.501,14.392 z M56.038,11.514 L58.217,5.296 L59.488,5.745 L57.314,11.964 z M51.994,8.174 L52.621,3.837 L53.862,4.015 L52.92,10.536 L51.835,10.381 L49.187,5.491 L48.549,9.905 L47.306,9.724 L48.249,3.205 L49.444,3.377 z M42.561,7.608 L42.094,3.253 L43.341,3.119 L44.045,9.669 L42.956,9.787 L39.177,5.704 L39.657,10.142 L38.409,10.276 L37.702,3.726 L38.902,3.596 z M33.168,9.016 L31.387,6.81 L31.41,9.643 z M33.851,9.864 L31.42,10.731 L31.433,12.432 L30.205,12.87 L30.381,5.816 L31.749,5.329 L36.236,10.726 L34.924,11.192 z M23.7,16.828 L20.131,11.289 L21.258,10.56 L22.747,12.868 L25.047,11.387 L23.56,9.08 L24.69,8.351 L28.258,13.891 L27.129,14.617 L25.656,12.335 L23.357,13.817 L24.829,16.1 z M18.816,19.983 C19.081,19.702 19.25,19.416 19.321,19.122 C19.39,18.829 19.351,18.518 19.193,18.19 C19.042,17.86 18.765,17.507 18.371,17.13 C17.969,16.748 17.601,16.489 17.271,16.357 C16.942,16.223 16.63,16.196 16.341,16.279 C16.051,16.364 15.773,16.544 15.505,16.827 C15.237,17.106 15.069,17.395 15.002,17.69 C14.934,17.987 14.975,18.297 15.123,18.62 C15.273,18.945 15.549,19.3 15.95,19.681 C16.349,20.062 16.715,20.32 17.048,20.453 C17.378,20.59 17.688,20.615 17.978,20.531 C18.265,20.446 18.545,20.264 18.816,19.983 M19.631,20.761 C19.178,21.233 18.702,21.554 18.199,21.723 C17.694,21.894 17.175,21.895 16.636,21.73 C16.101,21.564 15.553,21.211 14.996,20.682 C14.179,19.904 13.753,19.121 13.709,18.329 C13.669,17.538 13.994,16.78 14.691,16.049 C15.14,15.579 15.617,15.256 16.121,15.087 C16.624,14.917 17.145,14.915 17.681,15.081 C18.219,15.248 18.765,15.597 19.324,16.128 C20.138,16.906 20.567,17.687 20.609,18.48 C20.652,19.272 20.324,20.031 19.631,20.761 M14.818,27.077 C14.67,27.32 14.503,27.527 14.317,27.703 C14.135,27.881 13.942,28.031 13.74,28.155 L12.67,27.499 C12.896,27.4 13.101,27.293 13.283,27.184 C13.465,27.076 13.606,26.936 13.715,26.761 C13.885,26.48 13.947,26.222 13.894,25.985 C13.842,25.749 13.655,25.533 13.335,25.337 L9.478,22.972 L10.183,21.826 L14.097,24.226 C14.451,24.442 14.714,24.675 14.884,24.921 C15.052,25.168 15.153,25.417 15.182,25.669 C15.215,25.92 15.195,26.165 15.122,26.407 C15.045,26.647 14.947,26.871 14.818,27.077 M45,11.749 C26.635,11.749 11.75,26.635 11.75,45 C11.75,63.362 26.635,78.25 45,78.25 C63.363,78.25 78.249,63.362 78.249,45 C78.249,26.635 63.363,11.749 45,11.749 M45,12.847 C62.727,12.847 77.151,27.272 77.151,45 C77.151,62.727 62.727,77.15 45,77.15 C27.273,77.15 12.847,62.727 12.847,45 C12.847,27.272 27.273,12.847 45,12.847 M44.999,0.039 C20.17,0.039 0.04,20.167 0.04,44.997 C0.04,69.828 20.17,89.959 44.999,89.959 C69.83,89.959 89.961,69.828 89.961,44.997 C89.961,20.167 69.83,0.039 44.999,0.039 M44.999,1.135 C69.186,1.135 88.862,20.812 88.862,44.997 C88.862,69.182 69.186,88.858 44.999,88.858 C20.814,88.858 1.139,69.182 1.139,44.997 C1.139,20.812 20.814,1.135 44.999,1.135" fill="#000000"/>
    </g>
  </g>
</svg>
